<?xml version="1.0" encoding="iso-8859-1"?>
<!-- Uploaded to: SVG Repo, www.svgrepo.com, Generator: SVG Repo Mixer Tools -->
<svg height="800px" width="800px" version="1.1" id="Layer_1" xmlns="http://www.w3.org/2000/svg" xmlns:xlink="http://www.w3.org/1999/xlink" 
	 viewBox="0 0 512 512" xml:space="preserve">
<path style="fill:#C9C4E1;" d="M457.577,202.862l-46.234-23.888c-1.303-0.673-2.849-0.673-4.15,0l-46.234,23.888
	c-3.009,1.556-6.597-0.629-6.597-4.016V18.799l54.989,0.128c30.297,0.071,54.822,24.651,54.822,54.948v124.97
	C464.172,202.232,460.585,204.418,457.577,202.862z"/>
<g>
	<path style="fill:#331E68;" d="M459.65,218.431c-3.107,0-6.215-0.757-8.992-2.193l-41.389-21.385l-41.397,21.387
		c-2.772,1.434-5.879,2.191-8.984,2.191c-5.091,0.002-9.921-1.949-13.598-5.49c-3.86-3.717-5.986-8.722-5.986-14.094V18.798
		c0-4,1.592-7.835,4.424-10.66c2.822-2.818,6.648-4.399,10.636-4.399c0.012,0,0.024,0,0.035,0l54.989,0.128
		c38.513,0.09,69.846,31.496,69.846,70.007v124.97C479.231,209.646,470.446,218.431,459.65,218.431z M369.422,33.893V181.54
		l30.859-15.943c5.516-2.857,12.442-2.858,17.977,0l30.856,15.943V73.876c0-21.944-17.852-39.838-39.799-39.889L369.422,33.893z"/>
	<path style="fill:#331E68;" d="M416.246,512h-289.11c-46.654,0-84.611-37.956-84.611-84.611V84.611
		C42.525,37.956,80.481,0,127.136,0h289.111c37.653,0,68.286,30.633,68.286,68.286v232.891c0,8.315-6.743,15.059-15.059,15.059
		s-15.059-6.743-15.059-15.059V68.286c-0.002-21.046-17.123-38.168-38.17-38.168h-289.11c-30.048,0-54.493,24.445-54.493,54.493
		v342.779c0,30.047,24.445,54.492,54.493,54.492h289.111c21.046,0,38.168-17.122,38.168-38.168V379.71
		c0-8.315,6.743-15.059,15.059-15.059s15.059,6.743,15.059,15.059v64.005C484.532,481.367,453.899,512,416.246,512z"/>
	<path style="fill:#331E68;" d="M127.659,512c-8.317,0-15.059-6.743-15.059-15.059V90.353c0-8.315,6.742-15.059,15.059-15.059
		s15.059,6.743,15.059,15.059v406.588C142.718,505.257,135.976,512,127.659,512z"/>
	<path style="fill:#331E68;" d="M117.819,143.059H42.525c-8.317,0-15.059-6.743-15.059-15.059s6.742-15.059,15.059-15.059h75.294
		c8.317,0,15.059,6.743,15.059,15.059S126.136,143.059,117.819,143.059z"/>
	<path style="fill:#331E68;" d="M117.819,271.059H42.525c-8.317,0-15.059-6.743-15.059-15.059c0-8.315,6.742-15.059,15.059-15.059
		h75.294c8.317,0,15.059,6.743,15.059,15.059C132.878,264.315,126.136,271.059,117.819,271.059z"/>
	<path style="fill:#331E68;" d="M117.819,399.059H42.525c-8.317,0-15.059-6.743-15.059-15.059s6.742-15.059,15.059-15.059h75.294
		c8.317,0,15.059,6.743,15.059,15.059S126.136,399.059,117.819,399.059z"/>
</g>
<path style="fill:#C9C4E1;" d="M351.734,395.294H230.259c-12.198,0-22.087-9.888-22.087-22.087v-46.181
	c0-12.198,9.888-22.087,22.087-22.087h121.475c12.198,0,22.087,9.888,22.087,22.087v46.181
	C373.819,385.407,363.932,395.294,351.734,395.294z"/>
<path style="fill:#331E68;" d="M351.733,410.353H230.258c-20.483,0-37.146-16.663-37.146-37.146v-46.179
	c0-20.483,16.663-37.146,37.146-37.146h121.475c20.483,0,37.146,16.663,37.146,37.146v46.179
	C388.878,393.69,372.216,410.353,351.733,410.353z M230.259,320c-3.875,0-7.028,3.153-7.028,7.028v46.179
	c0,3.875,3.153,7.028,7.028,7.028h121.475c3.875,0,7.028-3.153,7.028-7.028v-46.179c0-3.875-3.153-7.028-7.028-7.028H230.259z"/>
</svg>